<svg width="23" height="16" viewBox="0 0 23 16" fill="none" xmlns="http://www.w3.org/2000/svg">
<path fill-rule="evenodd" clip-rule="evenodd" d="M10.3502 1.66311C9.64055 0.582088 8.43747 0.0282134 6.73698 0H0V15.6065H6.28201C6.99033 15.6065 7.64559 15.5382 8.25177 15.3971C8.85795 15.2546 9.3819 14.9947 9.82625 14.6131C10.2215 14.2805 10.5505 13.8706 10.8131 13.3851C11.2283 12.6515 11.4352 11.8214 11.4352 10.8963C11.4352 9.99944 11.2535 9.23619 10.8927 8.60956C10.5279 7.98144 9.99206 7.5226 9.28109 7.23155C9.74932 6.96427 10.1035 6.66729 10.3449 6.34357C10.776 5.76445 10.9895 4.99675 10.9895 4.04492C10.9895 3.11981 10.776 2.32687 10.3502 1.66311ZM20.39 2.66988H14.4157V0.72761H20.39V2.66988ZM17.4387 3.75833C18.3367 3.75833 19.1445 3.93949 19.8634 4.30032C20.5837 4.65968 21.1766 5.22988 21.6435 6.00798C22.0693 6.69401 22.3425 7.48993 22.4672 8.39425C22.5402 8.92288 22.5693 9.68909 22.5574 10.6855H15.0458C15.0909 11.8422 15.4464 12.6545 16.1255 13.1193C16.5367 13.4088 17.0315 13.5543 17.6124 13.5543C18.2239 13.5543 18.724 13.3776 19.1073 13.0257C19.3182 12.8342 19.5039 12.5698 19.6631 12.2313H22.4155C22.3425 12.9143 22.0083 13.6108 21.4167 14.3176C20.4935 15.4387 19.2002 16 17.5382 16C16.1653 16 14.9543 15.5278 13.9077 14.5804C12.8558 13.6345 12.3332 12.0932 12.3332 9.96084C12.3332 7.96065 12.8068 6.42673 13.7525 5.35907C14.7009 4.29438 15.9279 3.75833 17.4387 3.75833ZM5.81375 2.70996H2.77886V6.15349H6.16924C6.77277 6.15349 7.26488 6.0243 7.64424 5.76592C8.02095 5.50755 8.21063 5.05019 8.21063 4.39683C8.21063 3.66773 7.96126 3.1881 7.46252 2.95349C7.0301 2.79163 6.48095 2.70996 5.81375 2.70996ZM17.44 6.24852C16.7502 6.24852 16.2117 6.46829 15.831 6.90783C15.4503 7.34736 15.2102 7.94281 15.1121 8.69418H19.7586C19.7095 7.89233 19.4681 7.28648 19.041 6.86922C18.6086 6.45493 18.0767 6.24852 17.44 6.24852ZM2.77886 8.73576H6.21169C6.80858 8.7417 7.27416 8.8308 7.60577 9.00008C8.19869 9.30449 8.49316 9.86133 8.49316 10.6751C8.49316 11.6343 8.18808 12.2817 7.57659 12.6233C7.241 12.8059 6.76879 12.898 6.16393 12.898H2.77886V8.73576Z" fill="white"/>
</svg>
