<svg width="15" height="18" viewBox="0 0 15 18" fill="none" xmlns="http://www.w3.org/2000/svg">
<path fill-rule="evenodd" clip-rule="evenodd" d="M3.50103 2.00227C3.48083 0.865687 2.82522 0 1.76061 0C0.696004 0 0 0.865687 0 2.00227C0 3.1153 0.675433 4.00592 1.72022 4.00592H1.7401C2.82522 4.00592 3.50103 3.1153 3.50103 2.00227ZM3.29615 5.58817H0.184114V17.1801H3.29615V5.58817ZM10.9364 5.31593C12.9842 5.31593 14.5195 6.97306 14.5195 10.5336L14.5194 17.18H11.4074V10.9784C11.4074 9.42063 10.9571 8.35768 9.83054 8.35768C8.97077 8.35768 8.45867 9.07427 8.23375 9.76639C8.15147 10.0144 8.13127 10.36 8.13127 10.7065V17.1803H5.01886C5.01886 17.1803 5.05988 6.67616 5.01886 5.58844H8.13127V7.23034C8.54431 6.44105 9.28406 5.31593 10.9364 5.31593Z" fill="white"/>
</svg>
