<svg width="120" height="43" viewBox="0 0 120 43" fill="none" xmlns="http://www.w3.org/2000/svg">
<g clip-path="url(#clip0_166_146)">
<path d="M9.53333 30.4V11.7333C8.53333 11.9333 7.46667 12.0667 6.33333 12.2C5.2 12.3333 3.93333 12.3333 2.66667 12.3333C1.8 12.3333 0.933334 12.2667 1.01328e-06 12.2V13.1333C1 13.1333 1.66667 13.4667 2 14.0667C2.4 14.6667 2.53333 15.6 2.53333 16.9333V30.4667C2.53333 31.6667 2.33333 32.4667 1.93333 32.9333C1.53333 33.3333 0.866668 33.6 -0.0666656 33.6V34.5333C0.533334 34.5333 1.4 34.4667 2.6 34.4C3.8 34.3333 4.93333 34.3333 6.06667 34.3333C7.2 34.3333 8.33333 34.3333 9.46667 34.4C10.6 34.4667 11.4 34.4667 12 34.5333V33.6C11.0667 33.6 10.4 33.4 10 32.9333C9.73333 32.4 9.53333 31.6 9.53333 30.4Z" fill="#122420"/>
<path d="M37.2 33.4667C36.2667 33.4667 35.6 33.2667 35.2 32.8C34.8 32.4 34.6 31.5333 34.6 30.3333V18.8C34.6 17.3333 34.4667 16.2 34.2667 15.3333C34.0667 14.4667 33.7333 13.8 33.2667 13.2C32.8667 12.7333 32.2667 12.3333 31.5333 12C30.8 11.6667 29.8 11.5333 28.5333 11.5333C27 11.5333 25.6 11.8 24.4667 12.3333C23.2667 12.8667 22.3333 13.8 21.6667 15.1333V11.6667C20.6667 11.8667 19.6 12 18.4667 12.1333C17.3333 12.2667 16.0667 12.2667 14.8 12.2667C13.9333 12.2667 13.0667 12.2 12.1333 12.1333V13.0667C13.1333 13.0667 13.8 13.4 14.1333 14C14.5333 14.6 14.6667 15.5333 14.6667 16.8667V30.4C14.6667 31.6 14.4667 32.4 14.0667 32.8667C13.6667 33.2667 13 33.5333 12.0667 33.5333V34.4667C12.6667 34.4667 13.5333 34.4 14.7333 34.3333C15.9333 34.2667 17.0667 34.2667 18.2667 34.2667C19.3333 34.2667 20.4 34.2667 21.4 34.3333C22.4 34.4 23.2 34.4 23.7333 34.4667V33.5333C22.9333 33.5333 22.4 33.3333 22.0667 32.8667C21.7333 32.4667 21.6 31.6 21.6 30.4V17.6667C21.6 16.8667 21.7333 16.2 22.0667 15.6C22.4 15 22.8667 14.5333 23.4 14.1333C23.9333 13.7333 24.5333 13.6 25.2 13.6C25.8 13.6 26.3333 13.7333 26.6667 13.9333C27 14.2 27.2667 14.5333 27.4 15C27.5333 15.4667 27.6 16.0667 27.6 16.6667V30.3333C27.6 31.5333 27.4667 32.3333 27.1333 32.8C26.8 33.2 26.2667 33.4667 25.4667 33.4667V34.4C26 34.4 26.8 34.3333 27.9333 34.2667C29.0667 34.2 30.1333 34.2 31.3333 34.2C32.4 34.2 33.4667 34.2 34.6 34.2667C35.7333 34.3333 36.6 34.3333 37.1333 34.4V33.4667H37.2Z" fill="#122420"/>
<path d="M53.8 29.2C52.4667 28.8 51 28.6 49.2667 28.6H44.8667C43.8 28.6 43.2667 28.1333 43.2667 27.2C43.2667 26.6 43.4667 26.2 43.8667 25.8C44.1333 25.5333 44.4667 25.3333 44.7333 25.1333C45.0667 25.1333 45.4 25.2 45.7333 25.2C47.4 25.2 48.9333 24.9333 50.2667 24.4667C51.6 24 52.6667 23.2 53.4667 22.2C54.2667 21.2 54.6 19.8667 54.6 18.3333C54.6 16.7333 54.2 15.4667 53.4667 14.4667C53.4 14.3333 53.2667 14.2667 53.1333 14.1333C53.4 13.7333 53.6667 13.3333 54 13.0667C54.4667 12.6 55.1333 12.2 55.9333 11.8667C55.5333 12.8 55.3333 13.5333 55.3333 14.2C55.4 14.9333 55.6667 15.4667 56.0667 15.8C56.4667 16.1333 57 16.3333 57.4667 16.3333C58.0667 16.3333 58.6 16.1333 59 15.6667C59.4667 15.2 59.6667 14.6 59.6667 13.7333C59.6667 12.9333 59.4 12.2 58.9333 11.7333C58.4667 11.2 57.7333 10.9333 56.8 10.9333C55.6667 10.9333 54.6 11.2667 53.6667 12C53.1333 12.4 52.7333 12.8667 52.3333 13.4C51.7333 12.8667 51 12.4667 50.1333 12.2C48.8 11.7333 47.2667 11.4667 45.6 11.4667C43.8667 11.4667 42.3333 11.7333 41.0667 12.2C39.7333 12.6667 38.6667 13.4 37.9333 14.4C37.1333 15.4 36.8 16.6667 36.8 18.2667C36.8 19.8667 37.2 21.1333 37.9333 22.1333C38.7333 23.1333 39.7333 23.8667 41.0667 24.4C41.8667 24.6667 42.7333 24.8667 43.6 25C42.2667 25.6667 41.2667 26.3333 40.4 27.0667C39.4 28 38.8667 29.0667 38.8667 30.3333C38.8667 31.2 39.1333 31.9333 39.6 32.4667C40.0667 33.0667 40.7333 33.4667 41.6667 33.8C42.5333 34.1333 43.6 34.2667 44.8667 34.2667H47.3333C49.2 34.2667 50.4 34.5333 51.0667 35.1333C51.6667 35.7333 52 36.4 52 37.2667C52 38.1333 51.7333 38.9333 51.2 39.6C50.6667 40.2667 49.9333 40.7333 49 41.1333C48.0667 41.4667 46.9333 41.6667 45.6667 41.6667C43.8 41.6667 42.3333 41.3333 41.2667 40.7333C40.2 40.1333 39.6667 39.2 39.6667 38C39.6667 37.5333 39.7333 37.0667 40 36.6C40.2 36.1333 40.5333 35.6667 41 35.1333L40.6 34.4667C38.9333 34.8667 37.7333 35.4 36.9333 36.1333C36.1333 36.8 35.7333 37.6 35.7333 38.4667C35.7333 39.2667 36.1333 40 36.8667 40.6C37.6667 41.2 38.7333 41.6 40.1333 41.9333C41.5333 42.2667 43.1333 42.4 45 42.4C48 42.4 50.4667 42.0667 52.3333 41.3333C54.2667 40.6 55.6667 39.6667 56.5333 38.4667C57.4667 37.2667 57.9333 35.9333 57.9333 34.5333C57.9333 33.1333 57.5333 32 56.8 31.1333C56.1333 30.2 55.1333 29.6 53.8 29.2ZM44.1333 13.6667C44.5333 12.8 45 12.3333 45.6667 12.3333C46.2667 12.3333 46.8 12.8 47.2 13.6667C47.6 14.5333 47.8 16.1333 47.8 18.4C47.8 20.6667 47.6 22.2667 47.2 23.1333C46.8 24 46.3333 24.4667 45.6667 24.4667C45 24.4667 44.4667 24 44.1333 23.1333C43.7333 22.2667 43.6 20.6667 43.6 18.4C43.5333 16.1333 43.7333 14.5333 44.1333 13.6667Z" fill="#122420"/>
<path d="M75.8 16.0667C75.8 14.8667 75.4667 13.9333 74.8 13.3333C74.1333 12.7333 73.3333 12.2667 72.3333 12C71.3333 11.7333 70.3333 11.6 69.2667 11.6C67.6667 11.6 66.2667 11.8667 65.0667 12.4C63.9333 12.9333 63 13.6667 62.4 14.6C61.8 15.5333 61.4667 16.6 61.4667 17.8667C61.4667 19.1333 61.7333 20.2667 62.3333 21.2C62.8667 22.2 63.4667 23.2 64.1333 24.2C64.9333 25.4 65.5333 26.4667 65.9333 27.4667C66.3333 28.4667 66.5333 29.4 66.5333 30.3333C66.5333 31.5333 66.2 32.4 65.5333 33.0667C64.8667 33.7333 64 34 62.9333 34C62.5333 34 62.2667 34 62 33.9333C61.7333 33.8667 61.4667 33.8 61.2667 33.6667C61.4 33.2667 61.6 32.7333 61.8 32.1333C62 31.5333 62.1333 30.8667 62.1333 30.1333C62.1333 29.2 61.9333 28.4 61.4667 27.7333C61.0667 27.0667 60.4667 26.8 59.6667 26.8C58.8667 26.8 58.3333 27.1333 57.8667 27.7333C57.4667 28.3333 57.2667 29.0667 57.2667 29.8667C57.2667 31.0667 57.6 32.0667 58.2667 32.8C58.9333 33.5333 59.8 34.0667 60.9333 34.3333C62 34.6667 63.1333 34.8 64.3333 34.8C66 34.8 67.4 34.5333 68.6667 33.9333C69.8667 33.3333 70.8 32.5333 71.4667 31.6C72.1333 30.6 72.4 29.5333 72.4 28.2667C72.4 27.2667 72.2 26.2 71.8 25.2C71.4 24.2 70.7333 23 69.8667 21.6C69.4 20.8667 69 20.2 68.6 19.6C68.2 19 67.8667 18.4 67.6667 17.8C67.4667 17.2 67.3333 16.6 67.3333 15.9333C67.3333 14.7333 67.6667 13.8667 68.2667 13.2C68.8667 12.6 69.6667 12.2667 70.6667 12.2667C71.2667 12.2667 71.8 12.4 72.2 12.6C71.8667 13 71.5333 13.4667 71.2667 14.0667C71 14.6667 70.8667 15.4 70.8667 16.1333C70.8667 17 71.0667 17.6667 71.5333 18.2C71.9333 18.7333 72.5333 19 73.2667 19C73.8667 19 74.3333 18.8667 74.7333 18.5333C75.1333 18.2 75.4 17.8 75.6 17.2667C75.8 16.7333 75.8 16.5333 75.8 16.0667Z" fill="#122420"/>
<path d="M85.4667 27.4667L84.6667 29.5333C84.1333 30.9333 83.6 31.8667 83.2 32.2667C82.7333 32.6667 82.3333 32.9333 82 32.9333C81.6 32.9333 81.3333 32.8 81.2 32.4667C81.0667 32.1333 81.1333 31.6 81.4 30.8L85.9333 17.6667C86.1333 17 86.3333 16.2667 86.3333 15.6C86.4 14.9333 86.3333 14.2667 86.1333 13.6667C85.9333 13.0667 85.5333 12.6 85 12.2C84.4 11.8 83.6667 11.6667 82.6667 11.6667C81.8667 11.6667 81.0667 11.8 80.2667 12.0667C79.5333 12.3333 78.8 12.8 78.2 13.4C77.6 14 77.0667 14.9333 76.6667 16.0667L75.4667 19.3333H76.2667L77.1333 17.1333C77.6 15.9333 78.0667 15 78.4667 14.5333C78.8667 14 79.4 13.7333 79.8667 13.7333C80.6667 13.7333 80.8 14.4667 80.3333 15.8667L76.1333 28.2C75.6667 29.6 75.4667 30.8 75.5333 31.8667C75.6 32.8667 75.9333 33.6667 76.6 34.2C77.2667 34.7333 78.2 35 79.4 35C80.1333 35 80.8667 34.8667 81.6 34.6C82.3333 34.3333 83 33.8667 83.6667 33.2667C84.2667 32.6667 84.8 31.7333 85.2 30.5333L86.3333 27.4H85.4667V27.4667Z" fill="#122420"/>
<path d="M103.2 13.3333C102.533 12.7333 101.733 12.2667 100.733 12C99.7334 11.7333 98.7334 11.6 97.6667 11.6C96.0667 11.6 94.6667 11.8667 93.4667 12.4C92.3334 12.9333 91.4 13.6667 90.8 14.6C90.2 15.5333 89.8667 16.6 89.8667 17.8667C89.8667 19.1333 90.1334 20.2667 90.7334 21.2C91.2667 22.2 91.8667 23.2 92.5334 24.2C93.3334 25.4 93.9334 26.4667 94.3334 27.4667C94.7334 28.4667 94.9333 29.4 94.9333 30.3333C94.9333 31.5333 94.6 32.4 93.9333 33.0667C93.2667 33.7333 92.4 34 91.3334 34C90.9334 34 90.6667 34 90.4 33.9333C90.1334 33.8667 89.8667 33.8 89.6667 33.6667C89.8 33.2667 90 32.7333 90.2 32.1333C90.4 31.5333 90.5334 30.8667 90.5334 30.1333C90.5334 29.2 90.3334 28.4 89.8667 27.7333C89.4667 27.0667 88.8667 26.8 88.0667 26.8C87.2667 26.8 86.7333 27.1333 86.2667 27.7333C85.8667 28.3333 85.6667 29.0667 85.6667 29.8667C85.6667 31.0667 86 32.0667 86.6667 32.8C87.3334 33.5333 88.2 34.0667 89.3334 34.3333C90.4 34.6667 91.5334 34.8 92.7334 34.8C94.4 34.8 95.8 34.5333 97.0667 33.9333C98.2667 33.3333 99.2 32.5333 99.8667 31.6C100.533 30.6 100.8 29.5333 100.8 28.2667C100.8 27.2667 100.6 26.2 100.2 25.2C99.8 24.2 99.1334 23 98.2667 21.6C97.8 20.8667 97.4 20.2 97 19.6C96.6 19 96.2667 18.4 96.0667 17.8C95.8667 17.2 95.7334 16.6 95.7334 15.9333C95.7334 14.7333 96.0667 13.8667 96.6667 13.2C97.2667 12.6 98.0667 12.2667 99.0667 12.2667C99.6667 12.2667 100.2 12.4 100.6 12.6C100.267 13 99.9334 13.4667 99.6667 14.0667C99.4 14.6667 99.2667 15.4 99.2667 16.1333C99.2667 17 99.4667 17.6667 99.9333 18.2C100.333 18.7333 100.933 19 101.667 19C102.267 19 102.733 18.8667 103.133 18.5333C103.533 18.2 103.8 17.8 104 17.2667C104.2 16.7333 104.267 16.2667 104.267 15.8667C104.2 14.8667 103.867 13.9333 103.2 13.3333Z" fill="#122420"/>
<path d="M114.933 13.0667H119.933L120.067 12.2H115.2L117.2 5.20001C116.267 5.40001 115.333 5.53335 114.333 5.60001C113.333 5.66668 112.2 5.73335 111 5.80001L109.133 12.2H105.2L105 13.0667H108.867L104.533 28.1333C104.2 29.4 104.067 30.5333 104.2 31.6C104.333 32.6667 104.733 33.4667 105.467 34.0667C106.2 34.6667 107.2 35 108.533 35C110.067 35 111.333 34.6 112.467 33.7333C113.533 32.9333 114.4 31.6 115 29.9333L115.867 27.4667H115.067L114.4 29.2C113.933 30.4667 113.4 31.4 112.8 32C112.2 32.6 111.6 32.9333 111 32.9333C110.533 32.9333 110.133 32.7333 109.933 32.4C109.667 32.0667 109.667 31.5333 109.867 30.8L114.933 13.0667Z" fill="#122420"/>
<path d="M5.73333 8.66667C8.12656 8.66667 10.0667 6.72657 10.0667 4.33333C10.0667 1.9401 8.12656 0 5.73333 0C3.34009 0 1.39999 1.9401 1.39999 4.33333C1.39999 6.72657 3.34009 8.66667 5.73333 8.66667Z" fill="#122420"/>
<path d="M85.6667 8.66667C88.0599 8.66667 90 6.72657 90 4.33333C90 1.9401 88.0599 0 85.6667 0C83.2734 0 81.3333 1.9401 81.3333 4.33333C81.3333 6.72657 83.2734 8.66667 85.6667 8.66667Z" fill="#122420"/>
</g>
<defs>
<clipPath id="clip0_166_146">
<rect width="120" height="42.4667" fill="white"/>
</clipPath>
</defs>
</svg>
