<svg width="24" height="24" viewBox="0 0 24 24" fill="none" xmlns="http://www.w3.org/2000/svg">
<path d="M13.2853 12.5C13.2853 9.46468 10.7649 7 7.64263 7C4.52038 7 2 9.46468 2 12.5C2 15.5353 4.52038 18 7.64263 18C10.7649 18 13.2853 15.5353 13.2853 12.5ZM19.4671 12.5C19.4671 9.6468 18.2006 7.32781 16.6458 7.32781C15.0909 7.32781 13.8245 9.6468 13.8245 12.5C13.8245 15.3532 15.0909 17.6722 16.6458 17.6722C18.2006 17.6722 19.4671 15.3653 19.4671 12.5ZM22 12.5C22 9.93819 21.5611 7.86203 21.0094 7.86203C20.4577 7.86203 20.0188 9.93819 20.0188 12.5C20.0188 15.0618 20.4577 17.138 21.0094 17.138C21.5611 17.138 22 15.0618 22 12.5Z" fill="white"/>
</svg>
